HIERARCHY
ROOT hip
{
  OFFSET 0 0 0
  CHANNELS 6 Xposition Yposition Zposition Zrotation Yrotation Xrotation
  JOINT abdomen
  {
    OFFSET 0 20.6881 -0.73152
    CHANNELS 3 Zrotation Xrotation Yrotation
    JOINT chest
    {
      OFFSET 0 11.7043 -0.48768
      CHANNELS 3 Zrotation Xrotation Yrotation
      JOINT neck
      {
        OFFSET 0 22.1894 -2.19456
        CHANNELS 3 Zrotation Xrotation Yrotation
        JOINT head
        {
          OFFSET -0.24384 7.07133 1.2192
          CHANNELS 3 Zrotation Xrotation Yrotation
          JOINT leftEye
          {
            OFFSET 4.14528 8.04674 8.04672
            CHANNELS 3 Zrotation Xrotation Yrotation
            End Site
            {
              OFFSET 1 0 0
            }
          }
          JOINT rightEye
          {
            OFFSET -3.6576 8.04674 8.04672
            CHANNELS 3 Zrotation Xrotation Yrotation
            End Site
            {
              OFFSET 1 0 0
            }
          }
        }
      }
      JOINT rCollar
      {
        OFFSET -2.68224 19.2634 -4.8768
        CHANNELS 3 Zrotation Xrotation Yrotation
        JOINT rShldr
        {
          OFFSET -8.77824 -1.95073 1.46304
          CHANNELS 3 Zrotation Xrotation Yrotation
          JOINT rForeArm
          {
            OFFSET -28.1742 -1.7115 0.48768
            CHANNELS 3 Zrotation Xrotation Yrotation
            JOINT rHand
            {
              OFFSET -22.5879 0.773209 7.07136
              CHANNELS 3 Zrotation Xrotation Yrotation
              JOINT rThumb1
              {
                OFFSET -1.2192 -0.487915 3.41376
                CHANNELS 3 Zrotation Xrotation Yrotation
                JOINT rThumb2
                {
                  OFFSET -3.37035 -0.52449 3.41376
                  CHANNELS 3 Zrotation Xrotation Yrotation
                  End Site
                  {
                    OFFSET -1.78271 -1.18214 1.43049
                  }
                }
              }
              JOINT rIndex1
              {
                OFFSET -7.75947 0.938293 5.60832
                CHANNELS 3 Zrotation Xrotation Yrotation
                JOINT rIndex2
                {
                  OFFSET -2.54057 -0.884171 1.56538
                  CHANNELS 3 Zrotation Xrotation Yrotation
                  End Site
                  {
                    OFFSET -1.62519 -0.234802 1.16502
                  }
                }
              }
              JOINT rMid1
              {
                OFFSET -8.24714 1.18213 3.41376
                CHANNELS 3 Zrotation Xrotation Yrotation
                JOINT rMid2
                {
                  OFFSET -3.10165 -0.590103 1.0647
                  CHANNELS 3 Zrotation Xrotation Yrotation
                  End Site
                  {
                    OFFSET -2.48547 -0.328903 0.83742
                  }
                }
              }
              JOINT rRing1
              {
                OFFSET -8.82822 0.546677 1.51678
                CHANNELS 3 Zrotation Xrotation Yrotation
                JOINT rRing2
                {
                  OFFSET -2.60934 -0.819778 -0.0198488
                  CHANNELS 3 Zrotation Xrotation Yrotation
                  End Site
                  {
                    OFFSET -2.33842 -0.294052 0.168128
                  }
                }
              }
              JOINT rPinky1
              {
                OFFSET -8.27202 -0.0477905 -0.4584
                CHANNELS 3 Zrotation Xrotation Yrotation
                JOINT rPinky2
                {
                  OFFSET -1.82734 -0.647385 -0.700984
                  CHANNELS 3 Zrotation Xrotation Yrotation
                  End Site
                  {
                    OFFSET -1.69225 -0.51767 -0.607171
                  }
                }
              }
            }
          }
        }
      }
      JOINT lCollar
      {
        OFFSET 2.68224 19.2634 -4.8768
        CHANNELS 3 Zrotation Xrotation Yrotation
        JOINT lShldr
        {
          OFFSET 8.77824 -1.95073 1.46304
          CHANNELS 3 Zrotation Xrotation Yrotation
          JOINT lForeArm
          {
            OFFSET 28.1742 -1.7115 0.48768
            CHANNELS 3 Zrotation Xrotation Yrotation
            JOINT lHand
            {
              OFFSET 22.5879 0.773209 7.07136
              CHANNELS 3 Zrotation Xrotation Yrotation
              JOINT lThumb1
              {
                OFFSET 1.2192 -0.487915 3.41376
                CHANNELS 3 Zrotation Xrotation Yrotation
                JOINT lThumb2
                {
                  OFFSET 3.37035 -0.52449 3.41376
                  CHANNELS 3 Zrotation Xrotation Yrotation
                  End Site
                  {
                    OFFSET 1.78271 -1.18214 1.43049
                  }
                }
              }
              JOINT lIndex1
              {
                OFFSET 7.75947 0.938293 5.60832
                CHANNELS 3 Zrotation Xrotation Yrotation
                JOINT lIndex2
                {
                  OFFSET 2.54057 -0.884171 1.56538
                  CHANNELS 3 Zrotation Xrotation Yrotation
                  End Site
                  {
                    OFFSET 1.62519 -0.234802 1.16502
                  }
                }
              }
              JOINT lMid1
              {
                OFFSET 8.24714 1.18213 3.41376
                CHANNELS 3 Zrotation Xrotation Yrotation
                JOINT lMid2
                {
                  OFFSET 3.10165 -0.590103 1.0647
                  CHANNELS 3 Zrotation Xrotation Yrotation
                  End Site
                  {
                    OFFSET 2.48547 -0.328903 0.83742
                  }
                }
              }
              JOINT lRing1
              {
                OFFSET 8.82822 0.546677 1.51678
                CHANNELS 3 Zrotation Xrotation Yrotation
                JOINT lRing2
                {
                  OFFSET 2.60934 -0.819778 -0.0198488
                  CHANNELS 3 Zrotation Xrotation Yrotation
                  End Site
                  {
                    OFFSET 2.33842 -0.294052 0.168128
                  }
                }
              }
              JOINT lPinky1
              {
                OFFSET 8.27202 -0.0477905 -0.4584
                CHANNELS 3 Zrotation Xrotation Yrotation
                JOINT lPinky2
                {
                  OFFSET 1.82734 -0.647385 -0.700984
                  CHANNELS 3 Zrotation Xrotation Yrotation
                  End Site
                  {
                    OFFSET 1.69225 -0.51767 -0.607171
                  }
                }
              }
            }
          }
        }
      }
    }
  }
  JOINT rButtock
  {
    OFFSET -8.77824 4.35084 1.2192
    CHANNELS 3 Zrotation Xrotation Yrotation
    JOINT rThigh
    {
      OFFSET 0 -1.70687 -2.19456
      CHANNELS 3 Zrotation Xrotation Yrotation
      JOINT rShin
      {
        OFFSET 0 -36.8199 0.73152
        CHANNELS 3 Zrotation Xrotation Yrotation
        JOINT rFoot
        {
          OFFSET 0.73152 -45.1104 -5.12064
          CHANNELS 3 Zrotation Xrotation Yrotation
          End Site
          {
            OFFSET -1.1221 -3.69964 12.103
          }
        }
      }
    }
  }
  JOINT lButtock
  {
    OFFSET 8.77824 4.35084 1.2192
    CHANNELS 3 Zrotation Xrotation Yrotation
    JOINT lThigh
    {
      OFFSET 0 -1.70687 -2.19456
      CHANNELS 3 Zrotation Xrotation Yrotation
      JOINT lShin
      {
        OFFSET 0 -36.8199 0.73152
        CHANNELS 3 Zrotation Xrotation Yrotation
        JOINT lFoot
        {
          OFFSET -0.73152 -45.1104 -5.12064
          CHANNELS 3 Zrotation Xrotation Yrotation
          End Site
          {
            OFFSET 1.1221 -3.69964 12.103
          }
        }
      }
    }
  }
}
MOTION
Frames:	4
Frame Time:	0.03333
1.6642000389110763 67.9135971069336 12.731999847106636 -14.371800273656845 -21.468500196933746 13.928499519824982 10.25849997997284 6.785229742527008 10.98220020532608 -2.0717300288379192 -7.503739893436432 3.024830035865307 -2.620340008288622 13.439700454473495 0.051027098670601845 6.824650168418884 -25.605499148368835 1.7691699787974358 0.0 0.0 0.0 0.0 0.0 0.0 6.394884621840902e-13 0.0 0.0 68.53250026702881 49.148701429367065 -8.338549956679344 -28.421300947666168 -36.47879898548126 77.81369984149933 -0.10960500338114798 9.398599863052368 1.3329899869859219 6.062350621505175e-10 6.901359483890701e-09 -9.131895239988808e-10 1.049400566444092e-09 1.201215127366595e-08 -1.5897683169896482e-09 6.062350621505175e-10 6.901359483890701e-09 -9.131895239988808e-10 7.7309102565050125 5.474880114197731 0.41731400415301323 6.062350621505175e-10 6.901359483890701e-09 -9.131895239988808e-10 2.905540131032467 0.9651830233633518 0.102901995414868 6.062350621505175e-10 6.901359483890701e-09 -9.131895239988808e-10 10.27859978377819 0.7318009994924068 0.025912300043273717 6.062350621505175e-10 6.901359483890701e-09 -9.131895239988808e-10 2.221670038998127 -0.733487019315362 -0.2089200052432716 6.394884621840902e-13 0.0 0.0 -53.31460118293762 29.23140048980713 -26.23999983072281 28.43300074338913 -35.81229954957962 -76.69540107250214 1.05167998932302 -27.7973011136055 4.248869866132736 1.26171073588921e-09 5.88329385209363e-10 2.730615733526065e-09 2.1294965790730203e-09 1.3199041859479621e-09 4.734772574011004e-09 1.26171073588921e-09 5.88329385209363e-10 2.730615733526065e-09 -7.7309102565050125 5.474880114197731 -0.41731400415301323 1.26171073588921e-09 5.88329385209363e-10 2.730615733526065e-09 -2.905540131032467 0.9651830233633518 -0.102901995414868 1.26171073588921e-09 5.88329385209363e-10 2.730615733526065e-09 -10.27859978377819 0.7318009994924068 -0.025912300043273717 1.26171073588921e-09 5.88329385209363e-10 2.730615733526065e-09 -2.221670038998127 -0.733487019315362 0.2089200052432716 0.0 0.0 0.0 -0.7657720148563385 -0.11585299973376095 -7.545369789004326 -0.138626997359097 40.049401223659515 1.8579400330781937 -18.94200012087822 -20.045499801635742 -34.24039900302887 0.0 0.0 0.0 70.68040251731873 -62.18760073184967 60.90689957141876 3.3847100660204887 75.77530145645142 -3.586769923567772 0.7734999619424343 -5.827880278229713 1.696029994636774
1.8479000341903884 67.88310241699219 13.159299853257835 -13.965099602937698 -21.445100605487823 13.932199627161026 9.681580290198326 7.030580118298531 11.138499900698662 -2.034230064600706 -7.639839872717857 3.067609928548336 -2.698290031403303 13.368600457906723 -0.0517538987332955 6.792699694633484 -25.970799922943115 1.5887900814414024 0.0 0.0 0.0 0.0 0.0 0.0 0.0 0.0 0.0 66.64610266685486 49.54389810562134 -6.07168972492218 -28.4210005402565 -36.49119883775711 77.8344976902008 -0.10743799852207303 9.306349977850914 1.3196699693799019 1.425419782208337e-09 1.6043486539274454e-08 -2.5055157948372653e-09 2.4511592755516176e-09 2.7912392397411168e-08 -4.349800519776181e-09 1.425419782208337e-09 1.6043486539274454e-08 -2.5055157948372653e-09 7.7309102565050125 5.474880114197731 0.41731400415301323 1.425419782208337e-09 1.6043486539274454e-08 -2.5055157948372653e-09 2.905540131032467 0.9651830233633518 0.102901995414868 1.425419782208337e-09 1.6043486539274454e-08 -2.5055157948372653e-09 10.27859978377819 0.7318009994924068 0.025912300043273717 1.425419782208337e-09 1.6043486539274454e-08 -2.5055157948372653e-09 2.221670038998127 -0.733487019315362 -0.2089200052432716 0.0 0.0 0.0 -53.16279888153076 29.012899696826935 -25.976099967956543 28.432399928569794 -35.8940988779068 -76.83230102062225 1.0801499616354704 -28.12990039587021 4.309090152382851 2.2318147330224747e-10 3.811351234617177e-09 1.722781917123939e-09 3.587530272852746e-10 6.71207089908421e-09 2.971063395307283e-09 2.2318147330224747e-10 3.811351234617177e-09 1.722781917123939e-09 -7.7309102565050125 5.474880114197731 -0.41731400415301323 2.2318147330224747e-10 3.811351234617177e-09 1.722781917123939e-09 -2.905540131032467 0.9651830233633518 -0.102901995414868 2.2318147330224747e-10 3.811351234617177e-09 1.722781917123939e-09 -10.27859978377819 0.7318009994924068 -0.025912300043273717 2.2318147330224747e-10 3.811351234617177e-09 1.722781917123939e-09 -2.221670038998127 -0.733487019315362 0.2089200052432716 0.0 0.0 0.0 -1.2472100090235472 0.026198500127065927 -7.5766101479530334 -0.13385500176809728 39.78520095348358 1.8525700829923153 -18.780100643634796 -19.89039972424507 -34.1635000705719 0.0 0.0 0.0 70.04729926586151 -62.48799741268158 60.76519846916199 3.4567900747060776 76.00560128688812 -3.6583299189805984 1.1055099964141846 -5.945930331945419 3.0966300889849663
2.064940036536427 67.8541030883789 13.672699871473014 -13.64709958434105 -21.413399577140808 14.01229977607727 9.225319772958755 7.354440093040466 11.37439951300621 -2.014270070940256 -7.740489766001701 3.1341199949383736 -2.841290161013603 13.24060007929802 -0.17743399366736412 6.802930310368538 -26.465200781822205 1.386239966377616 0.0 0.0 0.0 0.0 0.0 0.0 0.0 0.0 0.0 64.56499814987183 49.73590135574341 -3.5966401174664497 -28.41850072145462 -36.56749963760376 77.96339929103851 -0.10118199745193124 9.02969017624855 1.279779989272356 1.2361311974018463e-09 1.9547883312043268e-08 -2.5285373794758925e-09 2.1179857867537066e-09 3.3944047572731506e-08 -4.383053919809754e-09 1.2361311974018463e-09 1.9547883312043268e-08 -2.5285373794758925e-09 7.7309102565050125 5.474880114197731 0.41731400415301323 1.2361311974018463e-09 1.9547883312043268e-08 -2.5285373794758925e-09 2.905540131032467 0.9651830233633518 0.102901995414868 1.2361311974018463e-09 1.9547883312043268e-08 -2.5285373794758925e-09 10.27859978377819 0.7318009994924068 0.025912300043273717 1.2361311974018463e-09 1.9547883312043268e-08 -2.5285373794758925e-09 2.221670038998127 -0.733487019315362 -0.2089200052432716 0.0 0.0 0.0 -52.89989948272705 28.77489924430847 -25.88050067424774 28.431799113750458 -35.96519887447357 -76.95119798183441 1.0917500127106905 -28.264700174331665 4.333580061793327 -1.4055956398806302e-09 4.614548743120395e-09 -1.61662683240138e-09 -2.3846524754844722e-09 7.648282007721718e-09 -2.8316549105511513e-09 -1.4055956398806302e-09 4.614548743120395e-09 -1.61662683240138e-09 -7.7309102565050125 5.474880114197731 -0.41731400415301323 -1.4055956398806302e-09 4.614548743120395e-09 -1.61662683240138e-09 -2.905540131032467 0.9651830233633518 -0.102901995414868 -1.4055956398806302e-09 4.614548743120395e-09 -1.61662683240138e-09 -10.27859978377819 0.7318009994924068 -0.025912300043273717 -1.4055956398806302e-09 4.614548743120395e-09 -1.61662683240138e-09 -2.221670038998127 -0.733487019315362 0.2089200052432716 0.0 0.0 0.0 -1.6420899331569672 0.23413000395521522 -7.559810131788254 -0.12708300026133657 39.43230003118515 1.847820058465004 -18.546300530433655 -19.64989945292473 -34.069198966026306 0.0 0.0 0.0 69.50620114803314 -62.811702489852905 60.62960207462311 3.5487301647663116 76.29280149936676 -3.752470090985298 1.5276400744915009 -5.9046900272369385 4.885109961032867
2.3333100390445907 67.8488998413086 14.26929986756295 -13.281999975442886 -21.40820011496544 14.135799407958984 8.6445202678442 7.533220052719116 11.705499440431595 -1.9958999566733837 -7.843109741806984 3.2225001230835915 -2.9689498990774155 13.177400529384613 -0.32475300366058946 6.826069727540016 -26.91510111093521 1.1364999879151583 0.0 0.0 0.0 0.0 0.0 0.0 0.0 0.0 0.0 62.57770121097565 49.78280246257782 -1.237200004979968 -28.414901196956635 -36.67390018701553 78.14239919185638 -0.08961799903772771 8.520950227975845 1.2065000273287296 1.5482015669476823e-09 2.7262672119832132e-08 -2.9032776183157694e-09 2.65323762960179e-09 4.7286334847740363e-08 -5.0314952204644214e-09 1.5482015669476823e-09 2.7262672119832132e-08 -2.9032776183157694e-09 7.7309102565050125 5.474880114197731 0.41731400415301323 1.5482015669476823e-09 2.7262672119832132e-08 -2.9032776183157694e-09 2.905540131032467 0.9651830233633518 0.102901995414868 1.5482015669476823e-09 2.7262672119832132e-08 -2.9032776183157694e-09 10.27859978377819 0.7318009994924068 0.025912300043273717 1.5482015669476823e-09 2.7262672119832132e-08 -2.9032776183157694e-09 2.221670038998127 -0.733487019315362 -0.2089200052432716 0.0 0.0 0.0 -52.59050130844116 28.628700077533722 -25.762400329113007 28.430801331996918 -36.03890061378479 -77.07469761371613 1.068370034918189 -27.99629956483841 4.2847199365496635 -2.0668267097789794e-09 6.0674665292026475e-09 -2.609112925711088e-09 -3.5082337035419187e-09 1.0027179087046534e-08 -4.5569947815238265e-09 -2.0668267097789794e-09 6.0674665292026475e-09 -2.609112925711088e-09 -7.7309102565050125 5.474880114197731 -0.41731400415301323 -2.0668267097789794e-09 6.0674665292026475e-09 -2.609112925711088e-09 -2.905540131032467 0.9651830233633518 -0.102901995414868 -2.0668267097789794e-09 6.0674665292026475e-09 -2.609112925711088e-09 -10.27859978377819 0.7318009994924068 -0.025912300043273717 -2.0668267097789794e-09 6.0674665292026475e-09 -2.609112925711088e-09 -2.221670038998127 -0.733487019315362 0.2089200052432716 0.0 0.0 0.0 -2.1057000383734703 0.48461398109793663 -7.400370240211487 -0.11822800152003765 38.917798697948456 1.8356699869036674 -18.210399448871613 -19.296900629997253 -33.93210053443909 0.0 0.0 0.0 68.76349747180939 -63.17169785499573 60.4559987783432 3.643680028617382 76.5802001953125 -3.8519498705863953 1.9799099676311016 -5.929450169205666 6.74978032708168
